<svg xmlns="http://www.w3.org/2000/svg" width="256" height="105" viewBox="0 0 256 105">
  <g>
    <rect width="256" height="105" fill="none"/>
    <rect width="256" height="105" fill="none"/>
  </g>
  <g>
    <path d="M11.2,82.3,33.3,15.4H49.4l22,66.9-1.3,2.1H61.6L56.4,68H26.3L21,84.4H12.6Zm18-23.5H53.5L42.4,24.6H40.3Z" fill="#2d3079"/>
    <path d="M79.3,72.3V63.9l22.5-48.5h8.6l1.2,2.3L90.5,63.1h24.4V41.4h10.2v43H114.9V72.3Z" fill="#fff"/>
    <path d="M139.9,84.4V75.2h16.6V24.6H143.1V19.4l5.2-4h18.4V75.2h15v9.2Z" fill="#fff"/>
    <path d="M194.9,68.6V58.2a8.793,8.793,0,0,1,2.5-6.5l3.5-3.5-3.5-3.5a8.787,8.787,0,0,1-2.5-6.5v-7q0-15.8,15.8-15.8h14.2q15.8,0,15.8,15.8v7a8.791,8.791,0,0,1-2.5,6.5l-3.5,3.5,3.5,3.5a8.8,8.8,0,0,1,2.5,6.5V68.6q0,15.8-15.8,15.8H210.7Q194.9,84.4,194.9,68.6Zm10.2-30.5q0,5.7,5.7,5.7h14q5.7,0,5.7-5.7V30.2q0-5.6-5.7-5.6h-14q-5.7,0-5.7,5.6Zm0,31.5q0,5.6,5.7,5.6h14q5.7,0,5.7-5.6V58.7q0-5.7-5.7-5.7h-14q-5.7,0-5.7,5.7Z" fill="#fff"/>
    <g>
      <path d="M221.109,89.549V87.7h1.609v1.854Z" fill="#12497f"/>
      <path d="M224.636,89.549V79.71h1.646l3.787,7.016V79.71h1.51v9.839h-1.634l-3.8-7.016v7.016Z" fill="#12497f"/>
      <path d="M233.461,87.3v-2.98q0-2.253,1.956-2.253h1.608q1.942,0,1.944,2.253v2.11h-4.06v1.012q0,.657.57.657h3.242v.9l-.656.556h-2.648Q233.46,89.549,233.461,87.3Zm1.448-2.167h2.612v-.955q0-.657-.57-.656h-1.472q-.57,0-.57.656Z" fill="#12497f"/>
      <path d="M240.676,87.3V79.71h1.448v2.353h2.215v1.455h-2.215v3.92q0,.657.569.657h1.77v.9l-.656.556h-1.176Q240.675,89.549,240.676,87.3Z" fill="#12497f"/>
    </g>
  </g>
</svg>
