<?xml version="1.0" encoding="UTF-8"?>
<svg xmlns="http://www.w3.org/2000/svg" width="256" height="105" viewBox="0 0 256 105">
  <g id="a" data-name="Layer 1">
    <path d="M11.202,82.3L33.302,15.4h16.1l22,66.899-1.3,2.101h-8.5l-5.2-16.4H26.302l-5.3,16.4H12.602l-1.4-2.101Zm18-23.5h24.3l-11.1-34.199h-2.1l-11.1,34.199Z" fill="#12497f"/>
    <path d="M79.302,72.3v-8.399L101.802,15.4h8.6l1.199,2.3-21.1,45.4h24.4v-21.7h10.199v43h-10.199v-12.101h-35.6Z" fill="#fff"/>
    <path d="M139.9,84.4v-9.2h16.601V24.601h-13.4v-5.2l5.2-4h18.399v59.8h15v9.2h-41.8Z" fill="#fff"/>
    <path d="M194.899,68.601v-10.4c0-2.666,.833-4.833,2.5-6.5l3.5-3.5-3.5-3.5c-1.667-1.666-2.5-3.833-2.5-6.5v-7c0-10.533,5.266-15.8,15.8-15.8h14.2c10.533,0,15.8,5.267,15.8,15.8v7c0,2.667-.834,4.834-2.5,6.5l-3.5,3.5,3.5,3.5c1.666,1.667,2.5,3.834,2.5,6.5v10.4c0,10.534-5.267,15.8-15.8,15.8h-14.2c-10.534,0-15.8-5.266-15.8-15.8Zm10.2-30.5c0,3.8,1.899,5.7,5.7,5.7h14c3.8,0,5.699-1.9,5.699-5.7v-7.9c0-3.732-1.899-5.6-5.699-5.6h-14c-3.801,0-5.7,1.867-5.7,5.6v7.9Zm0,31.5c0,3.734,1.899,5.6,5.7,5.6h14c3.8,0,5.699-1.865,5.699-5.6v-10.9c0-3.8-1.899-5.7-5.699-5.7h-14c-3.801,0-5.7,1.9-5.7,5.7v10.9Z" fill="#fff"/>
  </g>
  <g id="b" data-name="Layer 3">
    <rect x="161.59" y="15.4" width="5.1" height="59.726" fill="#ef3b39"/>
    <rect x="120.001" y="41.4" width="5.1" height="43" fill="#ef3b39"/>
  </g>
</svg>